<svg width="240" height="45" viewBox="0 0 240 45" fill="none" xmlns="http://www.w3.org/2000/svg">
<g clip-path="url(#clip0_36_206)">
<path fill-rule="evenodd" clip-rule="evenodd" d="M0.840079 1.1438C0.608035 1.1438 0.419922 1.33191 0.419922 1.56396V21.9416C0.419922 22.1736 0.60803 22.3617 0.840079 22.3617H9.75582C4.59973 22.3617 0.419922 26.5415 0.419922 31.6976V43.1595C0.419922 43.3914 0.60803 43.5797 0.840079 43.5797H21.2177C21.4498 43.5797 21.6379 43.3914 21.6379 43.1595V34.2438C21.6379 39.3999 25.8177 43.5797 30.9738 43.5797H42.4356C42.6676 43.5797 42.8558 43.3914 42.8558 43.1595V22.7819C42.8558 22.5498 42.6676 22.3617 42.4356 22.3617H33.5199C38.676 22.3617 42.8558 18.1819 42.8558 13.0258V1.56396C42.8558 1.33191 42.6676 1.1438 42.4356 1.1438H22.058C21.826 1.1438 21.6379 1.33191 21.6379 1.56396V10.4797C21.6379 5.32361 17.4581 1.1438 12.302 1.1438H0.840079ZM21.6379 31.6976V22.3617H30.9738C25.8177 22.3617 21.6379 18.1819 21.6379 13.0258V22.3617H12.302C17.4581 22.3617 21.6379 26.5415 21.6379 31.6976Z" fill="#33A1FD"/>
<mask id="mask0_36_206" style="mask-type:luminance" maskUnits="userSpaceOnUse" x="0" y="0" width="44" height="44">
<path d="M43.2762 0.723877H0V44.0001H43.2762V0.723877Z" fill="white"/>
<path fill-rule="evenodd" clip-rule="evenodd" d="M0.840079 1.1438C0.608035 1.1438 0.419922 1.33191 0.419922 1.56396V21.9416C0.419922 22.1736 0.60803 22.3617 0.840079 22.3617H9.75582C4.59973 22.3617 0.419922 26.5415 0.419922 31.6976V43.1595C0.419922 43.3914 0.60803 43.5797 0.840079 43.5797H21.2177C21.4498 43.5797 21.6379 43.3914 21.6379 43.1595V34.2438C21.6379 39.3999 25.8177 43.5797 30.9738 43.5797H42.4356C42.6676 43.5797 42.8558 43.3914 42.8558 43.1595V22.7819C42.8558 22.5498 42.6676 22.3617 42.4356 22.3617H33.5199C38.676 22.3617 42.8558 18.1819 42.8558 13.0258V1.56396C42.8558 1.33191 42.6676 1.1438 42.4356 1.1438H22.058C21.826 1.1438 21.6379 1.33191 21.6379 1.56396V10.4797C21.6379 5.32361 17.4581 1.1438 12.302 1.1438H0.840079ZM21.6379 31.6976V22.3617H30.9738C25.8177 22.3617 21.6379 18.1819 21.6379 13.0258V22.3617H12.302C17.4581 22.3617 21.6379 26.5415 21.6379 31.6976Z" fill="black"/>
</mask>
<g mask="url(#mask0_36_206)">
<path d="M0.631095 1.56383C0.631095 1.44781 0.725151 1.35375 0.841173 1.35375V0.933594C0.493102 0.933594 0.210938 1.21576 0.210938 1.56383H0.631095ZM0.631095 21.9415V1.56383H0.210938V21.9415H0.631095ZM0.841173 22.1515C0.725151 22.1515 0.631095 22.0575 0.631095 21.9415H0.210938C0.210938 22.2895 0.493102 22.5717 0.841173 22.5717V22.1515ZM9.75691 22.1515H0.841173V22.5717H9.75691V22.1515ZM0.631095 31.6975C0.631095 26.6575 4.71687 22.5717 9.75691 22.5717V22.1515C4.48482 22.1515 0.210938 26.4254 0.210938 31.6975H0.631095ZM0.631095 43.1594V31.6975H0.210938V43.1594H0.631095ZM0.841173 43.3695C0.725151 43.3695 0.631095 43.2754 0.631095 43.1594H0.210938C0.210938 43.5073 0.493102 43.7896 0.841173 43.7896V43.3695ZM21.2188 43.3695H0.841173V43.7896H21.2188V43.3695ZM21.4289 43.1594C21.4289 43.2754 21.3348 43.3695 21.2188 43.3695V43.7896C21.5669 43.7896 21.849 43.5073 21.849 43.1594H21.4289ZM21.4289 34.2437V43.1594H21.849V34.2437H21.4289ZM30.9748 43.3695C25.9348 43.3695 21.849 39.2837 21.849 34.2437H21.4289C21.4289 39.5157 25.7028 43.7896 30.9748 43.7896V43.3695ZM42.4367 43.3695H30.9748V43.7896H42.4367V43.3695ZM42.6468 43.1594C42.6468 43.2754 42.5527 43.3695 42.4367 43.3695V43.7896C42.7846 43.7896 43.067 43.5073 43.067 43.1594H42.6468ZM42.6468 22.7818V43.1594H43.067V22.7818H42.6468ZM42.4367 22.5717C42.5527 22.5717 42.6468 22.6658 42.6468 22.7818H43.067C43.067 22.4337 42.7846 22.1515 42.4367 22.1515V22.5717ZM33.521 22.5717H42.4367V22.1515H33.521V22.5717ZM42.6468 13.0257C42.6468 18.0658 38.561 22.1515 33.521 22.1515V22.5717C38.7931 22.5717 43.067 18.2978 43.067 13.0257H42.6468ZM42.6468 1.56383V13.0257H43.067V1.56383H42.6468ZM42.4367 1.35375C42.5527 1.35375 42.6468 1.44781 42.6468 1.56383H43.067C43.067 1.21576 42.7846 0.933594 42.4367 0.933594V1.35375ZM22.0591 1.35375H42.4367V0.933594H22.0591V1.35375ZM21.849 1.56383C21.849 1.44781 21.9431 1.35375 22.0591 1.35375V0.933594C21.7111 0.933594 21.4289 1.21576 21.4289 1.56383H21.849ZM21.849 10.4796V1.56383H21.4289V10.4796H21.849ZM12.3031 1.35375C17.3431 1.35375 21.4289 5.43953 21.4289 10.4796H21.849C21.849 5.20747 17.5752 0.933594 12.3031 0.933594V1.35375ZM0.841173 1.35375H12.3031V0.933594H0.841173V1.35375ZM21.849 31.6975V22.3616H21.4289V31.6975H21.849ZM21.639 22.5717H30.9748V22.1515H21.639V22.5717ZM30.9748 22.1515C25.9348 22.1515 21.849 18.0658 21.849 13.0257H21.4289C21.4289 18.2978 25.7028 22.5717 30.9748 22.5717V22.1515ZM21.4289 13.0257V22.3616H21.849V13.0257H21.4289ZM21.639 22.1515H12.3031V22.5717H21.639V22.1515ZM12.3031 22.5717C17.3431 22.5717 21.4289 26.6575 21.4289 31.6975H21.849C21.849 26.4254 17.5752 22.1515 12.3031 22.1515V22.5717Z" fill="#33A1FD"/>
</g>
</g>
<path d="M56.2717 28.128C56.2717 18.336 62.7357 11.424 72.0797 11.424C80.7197 11.424 86.6077 16.224 87.4397 23.84H79.6317C78.7357 20.256 76.1117 18.4 72.3997 18.4C67.4077 18.4 64.0797 22.176 64.0797 28.128C64.0797 34.08 67.1517 37.792 72.1437 37.792C76.0477 37.792 78.7997 35.872 79.6317 32.416H87.5037C86.5437 39.776 80.3997 44.832 72.1437 44.832C62.5437 44.832 56.2717 38.176 56.2717 28.128ZM114.115 12.384H121.923V44H114.691L114.115 39.776C112.195 42.784 108.099 44.832 103.875 44.832C96.5792 44.832 92.2912 39.904 92.2912 32.16V12.384H100.099V29.408C100.099 35.424 102.467 37.856 106.819 37.856C111.747 37.856 114.115 34.976 114.115 28.96V12.384ZM149.188 12.256V19.488H146.308C140.676 19.488 137.156 22.496 137.156 28.64V44H129.348V12.448H136.708L137.156 17.056C138.5 13.92 141.508 11.808 145.732 11.808C146.82 11.808 147.908 11.936 149.188 12.256ZM161.991 44.832C155.271 44.832 151.175 40.928 151.175 34.976C151.175 29.152 155.399 25.504 162.887 24.928L172.359 24.224V23.52C172.359 19.232 169.799 17.504 165.831 17.504C161.223 17.504 158.663 19.424 158.663 22.752H152.007C152.007 15.904 157.639 11.424 166.215 11.424C174.727 11.424 179.975 16.032 179.975 24.8V44H173.127L172.551 39.328C171.207 42.592 166.919 44.832 161.991 44.832ZM164.551 38.944C169.351 38.944 172.423 36.064 172.423 31.2V29.536L165.831 30.048C160.967 30.496 159.111 32.096 159.111 34.656C159.111 37.536 161.031 38.944 164.551 38.944ZM197.32 44H189.512V18.912H183.432V12.384H189.512V2.528H197.32V12.384H203.464V18.912H197.32V44ZM221.509 44.832C212.101 44.832 205.509 37.984 205.509 28.192C205.509 18.272 211.973 11.424 221.253 11.424C230.725 11.424 236.741 17.76 236.741 27.616V29.984L212.933 30.048C213.509 35.616 216.453 38.432 221.637 38.432C225.925 38.432 228.741 36.768 229.637 33.76H236.869C235.525 40.672 229.765 44.832 221.509 44.832ZM221.317 17.824C216.709 17.824 213.893 20.32 213.125 25.056H228.997C228.997 20.704 225.989 17.824 221.317 17.824Z" fill="white"/>
<defs>
<clipPath id="clip0_36_206">
<rect width="43.2762" height="43.2762" fill="white" transform="translate(0 0.723877)"/>
</clipPath>
</defs>
</svg>
